<?xml version="1.0" encoding="utf-8"?>
<!DOCTYPE svg PUBLIC "-//W3C//DTD SVG 1.1//EN" "http://www.w3.org/Graphics/SVG/1.1/DTD/svg11.dtd">

<svg version="1.1"
     xmlns="http://www.w3.org/2000/svg"
     xmlns:xlink="http://www.w3.org/1999/xlink"
     width="24"
     height="24"
     viewBox="0 0 24 24">
       
  <path fill="#808080" d="M21.7,20.3l-1.4,1.4l-5.4-5.4c-1.3,1-3,1.7-4.9,1.7 c-4.4,0-8-3.6-8-8c0-4.4,3.6-8,8-8c4.4,0,8,3.6,8,8c0,1.8-0.6,3.5-1.7,4.9L21.7,20.3z M10,4c-3.3,0-6,2.7-6,6s2.7,6,6,6s6-2.7,6-6 S13.3,4,10,4z"/>

</svg>
