<svg xmlns="http://www.w3.org/2000/svg" width="32" height="32" viewBox="0 0 32 32">
  <defs>
    <style>
      .cls-1 {
        fill: #005189;
      }

      .cls-1, .cls-2, .cls-4 {
        fill-rule: evenodd;
      }

      .cls-2 {
        fill: #0c99d5;
      }

      .cls-3, .cls-4 {
        fill: #fff;
      }

      .cls-3 {
        fill-opacity: 0.2;
      }
    </style>
  </defs>
  <path id="Bubble_Base" data-name="Bubble Base" class="cls-1" d="M29,29.009H19.738L16,32l-3.738-2.991H3a3,3,0,0,1-3-3V4A3,3,0,0,1,3,1H29a3,3,0,0,1,3,3V26.009A3,3,0,0,1,29,29.009Z"/>
  <path id="Inner_Bubble" data-name="Inner Bubble" class="cls-2" d="M29,28.009H19.738L16,31l-3.738-2.991H3a3,3,0,0,1-3-3V3A3,3,0,0,1,3,0H29a3,3,0,0,1,3,3V25.009A3,3,0,0,1,29,28.009Z"/>
  <circle id="Circle" class="cls-3" cx="16" cy="14" r="9.063"/>
  <path id="Face" class="cls-4" d="M16,4A10,10,0,1,1,6,14,10,10,0,0,1,16,4Zm0,1.336A8.664,8.664,0,1,1,7.336,14,8.664,8.664,0,0,1,16,5.336ZM16,19a7.272,7.272,0,0,1-4.753-1.73,0.812,0.812,0,0,1-.064-1.086,0.678,0.678,0,0,1,1-.071h0A5.993,5.993,0,0,0,16,17.462a5.9,5.9,0,0,0,3.81-1.347,0.679,0.679,0,0,1,1.008.069,0.813,0.813,0,0,1-.064,1.086A7.274,7.274,0,0,1,16,19ZM13.143,9a1.486,1.486,0,0,1,1.427,1.539,1.431,1.431,0,1,1-2.855,0A1.486,1.486,0,0,1,13.143,9Zm5.709,0a1.486,1.486,0,0,1,1.427,1.539,1.431,1.431,0,1,1-2.855,0A1.486,1.486,0,0,1,18.853,9Z"/>
</svg>
